<svg width="155" height="176" viewBox="0 0 155 176" fill="none" xmlns="http://www.w3.org/2000/svg">
<path d="M78.7253 33.0662H78.7253C76.5514 33.0662 74.7891 34.8295 74.7891 37.0047V49.5467C74.7891 51.7219 76.5514 53.4853 78.7253 53.4853H78.7253C80.8992 53.4853 82.6616 51.7219 82.6616 49.5467V37.0047C82.6616 34.8295 80.8992 33.0662 78.7253 33.0662Z" fill="#24582A"/>
<path d="M154.076 122.289C154.076 165.7 121.126 176 78.5786 176C36.0317 176 0 165.7 0 122.289C0 78.8797 34.4909 43.689 77.0379 43.689C119.585 43.689 154.076 78.8797 154.076 122.289Z" fill="#24582A"/>
<path d="M118.244 86.6572H36.8587C25.5788 86.6572 16.4346 95.8068 16.4346 107.093V107.093C16.4346 118.38 25.5788 127.53 36.8587 127.53H118.244C129.524 127.53 138.668 118.38 138.668 107.093V107.093C138.668 95.8068 129.524 86.6572 118.244 86.6572Z" fill="white"/>
<path d="M107.435 8.19971C118.891 19.434 107.403 28.4199 99.9404 32.3305C92.4776 36.2413 88.2148 38.5977 78.3436 35.3706C76.4182 31.4726 81.6707 24.2844 89.1332 20.3737C96.596 16.463 110.341 17.6356 107.435 8.19971Z" fill="#24582A"/>
<path d="M56.0427 0.105469C59.9049 8.3871 65.6305 15.9508 71.9676 20.3247C78.3043 24.6985 78.3752 24.7496 78.863 35.2341C76.3342 39.0944 69.1471 38.6779 62.8104 34.3043C56.4733 29.9303 56.6647 21.523 56.0427 0.105469Z" fill="#24582A"/>
<path d="M120.511 135.358L109.56 125.047L128.406 122.464L120.511 135.358Z" fill="white"/>
<path d="M54.049 118.396C61.0234 118.396 66.6773 112.814 66.6773 105.928C66.6773 99.0419 61.0234 93.4596 54.049 93.4596C47.0745 93.4596 41.4207 99.0419 41.4207 105.928C41.4207 112.814 47.0745 118.396 54.049 118.396Z" fill="#24582A"/>
<path d="M102.542 118.396C109.517 118.396 115.171 112.814 115.171 105.928C115.171 99.0419 109.517 93.4596 102.542 93.4596C95.5679 93.4596 89.9141 99.0419 89.9141 105.928C89.9141 112.814 95.5679 118.396 102.542 118.396Z" fill="#24582A"/>
</svg>
